<svg width="27" height="27" viewBox="0 0 27 27" fill="none" xmlns="http://www.w3.org/2000/svg">
<path d="M23.625 20.5875V6.4125C24.3 6.075 24.75 5.2875 24.75 4.5C24.75 3.2625 23.7375 2.25 22.5 2.25C21.7125 2.25 20.925 2.7 20.5875 3.375H6.4125C6.075 2.7 5.2875 2.25 4.5 2.25C3.2625 2.25 2.25 3.2625 2.25 4.5C2.25 5.2875 2.7 6.075 3.375 6.4125V20.5875C2.7 20.925 2.25 21.7125 2.25 22.5C2.25 23.7375 3.2625 24.75 4.5 24.75C5.2875 24.75 6.075 24.3 6.4125 23.625H20.5875C20.925 24.3 21.7125 24.75 22.5 24.75C23.7375 24.75 24.75 23.7375 24.75 22.5C24.75 21.7125 24.3 20.925 23.625 20.5875ZM21.375 20.5875C21.0375 20.8125 20.8125 21.0375 20.5875 21.375H6.4125C6.1875 21.0375 5.9625 20.8125 5.625 20.5875V6.4125C5.9625 6.1875 6.1875 5.9625 6.4125 5.625H20.5875C20.8125 5.9625 21.0375 6.1875 21.375 6.4125V20.5875ZM15.75 10.125V9C15.75 8.325 15.3 7.875 14.625 7.875H9C8.325 7.875 7.875 8.325 7.875 9V14.625C7.875 15.3 8.325 15.75 9 15.75H10.125V12.375C10.125 11.1375 11.1375 10.125 12.375 10.125H15.75ZM18 11.25H12.375C11.7 11.25 11.25 11.7 11.25 12.375V18C11.25 18.675 11.7 19.125 12.375 19.125H18C18.675 19.125 19.125 18.675 19.125 18V12.375C19.125 11.7 18.675 11.25 18 11.25Z" fill="white"/>
</svg>
