<svg width="24" height="24" viewBox="0 0 24 24" fill="none" xmlns="http://www.w3.org/2000/svg">
<path d="M16.2 12.9C16 12.8 15.9 12.7 15.7 12.7C18.3 10.7 18.8 6.9 16.7 4.3C14.6 1.7 10.9 1.2 8.3 3.3C5.7 5.4 5.2 9.1 7.3 11.7C7.6 12.1 7.9 12.4 8.3 12.7C8.2 12.8 8 12.8 7.9 12.9H7.8C4.6 14.4 2.4 17.4 2 20.9C2 21.4 2.4 21.9 3 22H21C21.5 21.9 21.9 21.4 21.9 20.9C21.6 17.4 19.4 14.4 16.2 12.9ZM8 7.6C8.2 5.4 10.2 3.8 12.3 4C14.2 4.2 15.7 5.7 15.9 7.6H8ZM12 16.2L10.1 14.3C11.4 14 12.7 14 14 14.3L12 16.2Z" fill="white"/>
</svg>
