<svg width="24" height="24" viewBox="0 0 24 24" fill="none" xmlns="http://www.w3.org/2000/svg">
<path fill-rule="evenodd" clip-rule="evenodd" d="M12.5931 23.258L12.582 23.26L12.511 23.295L12.491 23.299L12.477 23.295L12.406 23.26C12.3954 23.2567 12.3874 23.2583 12.382 23.265L12.378 23.275L12.361 23.703L12.366 23.723L12.376 23.736L12.48 23.81L12.495 23.814L12.507 23.81L12.611 23.736L12.623 23.72L12.627 23.703L12.61 23.276C12.6074 23.2653 12.6017 23.2593 12.5931 23.258ZM12.858 23.145L12.845 23.147L12.66 23.24L12.65 23.25L12.647 23.261L12.665 23.691L12.67 23.703L12.6781 23.71L12.879 23.803C12.8917 23.8063 12.9014 23.8037 12.908 23.795L12.912 23.781L12.878 23.167C12.8747 23.155 12.868 23.1477 12.858 23.145ZM12.143 23.147C12.1386 23.1443 12.1334 23.1435 12.1283 23.1446C12.1233 23.1457 12.1189 23.1487 12.116 23.153L12.11 23.167L12.076 23.781C12.0767 23.793 12.0824 23.801 12.0931 23.805L12.108 23.803L12.309 23.71L12.319 23.702L12.323 23.691L12.34 23.261L12.337 23.249L12.327 23.239L12.143 23.147Z" fill="white"/>
<path fill-rule="evenodd" clip-rule="evenodd" d="M12 4C12.855 4 13.732 4.022 14.582 4.058L15.586 4.106L16.547 4.163L17.447 4.224L18.269 4.288C19.1612 4.35589 20.0008 4.73643 20.64 5.3626C21.2791 5.98877 21.6768 6.8204 21.763 7.711L21.803 8.136L21.878 9.046C21.948 9.989 22 11.017 22 12C22 12.983 21.948 14.011 21.878 14.954L21.803 15.864L21.763 16.289C21.6768 17.1798 21.2789 18.0115 20.6396 18.6377C20.0002 19.2639 19.1604 19.6443 18.268 19.712L17.448 19.775L16.548 19.837L15.586 19.894L14.582 19.942C13.7218 19.9793 12.861 19.9986 12 20C11.139 19.9986 10.2782 19.9793 9.418 19.942L8.414 19.894L7.453 19.837L6.553 19.775L5.731 19.712C4.83881 19.6441 3.9992 19.2636 3.36004 18.6374C2.72089 18.0112 2.32319 17.1796 2.237 16.289L2.197 15.864L2.122 14.954C2.04583 13.9711 2.00514 12.9858 2 12C2 11.017 2.052 9.989 2.122 9.046L2.197 8.136L2.237 7.711C2.32316 6.82055 2.72071 5.98905 3.35966 5.36291C3.99861 4.73676 4.83799 4.35612 5.73 4.288L6.551 4.224L7.451 4.163L8.413 4.106L9.417 4.058C10.2775 4.02073 11.1387 4.00139 12 4ZM10 9.575V14.425C10 14.887 10.5 15.175 10.9 14.945L15.1 12.52C15.1914 12.4674 15.2673 12.3916 15.3201 12.3003C15.3729 12.209 15.4007 12.1055 15.4007 12C15.4007 11.8945 15.3729 11.791 15.3201 11.6997C15.2673 11.6084 15.1914 11.5326 15.1 11.48L10.9 9.056C10.8088 9.00332 10.7053 8.9756 10.5999 8.97562C10.4945 8.97563 10.3911 9.00339 10.2998 9.0561C10.2086 9.1088 10.1329 9.1846 10.0802 9.27587C10.0276 9.36713 9.99993 9.47065 10 9.576V9.575Z" fill="white"/>
</svg>
